<?xml version="1.0" encoding="utf-8"?>
<!-- Generator: Adobe Illustrator 25.1.0, SVG Export Plug-In . SVG Version: 6.00 Build 0)  -->
<svg version="1.1" id="Capa_1" xmlns="http://www.w3.org/2000/svg" xmlns:xlink="http://www.w3.org/1999/xlink" x="0px" y="0px"
	 viewBox="0 0 448.2 448.2" style="enable-background:new 0 0 448.2 448.2;" xml:space="preserve">
<style type="text/css">
	.st0{fill:#038336;}
</style>
<g>
	<g>
		<path class="st0" d="M353,23.7c-11.2-10.5-25.4-15.5-39.8-15.5c-16.2,0-32.5,6.4-44.7,18.6l-5.2,5.2l-5.2-5.2
			c-12.2-12.2-28.5-18.6-44.7-18.6c-14.4,0-28.7,5-39.8,15.5c-24.5,23.1-25,61.7-1.3,85.4l91.1,91.1l91.1-91.1
			C378,85.4,377.5,46.7,353,23.7z"/>
	</g>
</g>
<g>
	<g>
		<path class="st0" d="M442.4,246.5c-14-9.5-30.5-6.8-45.1,1.6s-98.5,80.1-98.5,80.1l-82.6,0c-3.8,0-8-4.3-8-8.1c0-4.5,3.9-8,8-8
			h50.5c17.7,0,37.5-11.5,37.5-32c0-21.8-19.8-32-37.5-32c-30.7,0-36.6,0.1-36.6,0.1c-12.3,0-24.8-0.7-34.4-5.9
			c-12.8-6.6-27.6-10.3-43.3-10.3c-26.4,0-50.1,10.5-66.3,27.2L0,344.1l96,96l32-32h162c16.1,0,31.7-5.9,43.7-16.6l109.7-123.1
			C450.2,262.5,449.8,251.5,442.4,246.5z"/>
	</g>
</g>
</svg>
